<svg width="24" height="24" viewBox="0 0 24 24" fill="none" xmlns="http://www.w3.org/2000/svg">
<path d="M5 12.5V3.5C5 3.2643 5 3.14645 5.07322 3.07322C5.14645 3 5.2643 3 5.5 3H10.2104C10.5134 3 10.6649 3 10.7862 3.0756C10.9076 3.15121 10.9744 3.28717 11.108 3.5591L11.7254 4.8159C11.8589 5.08783 11.9257 5.22379 12.0471 5.2994C12.1685 5.375 12.3199 5.375 12.6229 5.375H18.5C18.7357 5.375 18.8536 5.375 18.9268 5.44822C19 5.52145 19 5.6393 19 5.875V14.375C19 14.6107 19 14.7286 18.9268 14.8018C18.8536 14.875 18.7357 14.875 18.5 14.875H12.6229C12.3199 14.875 12.1685 14.875 12.0471 14.7994C11.9257 14.7238 11.8589 14.5878 11.7254 14.3159L11.108 13.0591C10.9744 12.7872 10.9076 12.6512 10.7862 12.5756C10.6649 12.5 10.5134 12.5 10.2104 12.5H5ZM5 12.5V21" stroke="#7B7B7B" stroke-width="1.5" stroke-linecap="round"/>
</svg>
