<svg width="18" height="18" viewBox="0 0 18 18" fill="none" xmlns="http://www.w3.org/2000/svg">
<path fill-rule="evenodd" clip-rule="evenodd" d="M8.75 16C8.50517 16 8.26033 15.9403 8.04294 15.8195L7.82411 15.698C4.38561 13.7957 2.25 10.2022 2.25 6.32084V6.2178C2.25 5.70688 2.53167 5.23219 2.98522 4.97993L8.04222 2.18156C8.47917 1.93995 9.02156 1.93924 9.45706 2.18085L14.5133 4.97922C14.9683 5.23219 15.25 5.70688 15.25 6.2178V6.32084C15.25 10.2022 13.1144 13.7957 9.67589 15.698L9.45778 15.8188C9.23967 15.9396 8.99483 16 8.75 16Z" fill="url(#paint0_linear)"/>
<path d="M7.09403 12C7.02083 12 6.95495 11.9784 6.8964 11.9424C6.79392 11.8703 6.75 11.7551 6.75 11.6038L6.79392 7.90156C6.79392 7.73589 6.87444 7.56302 7.02083 7.39736C7.13795 7.26771 7.29166 7.14526 7.4527 7.05162C7.56982 6.98679 7.74549 6.90756 7.91385 6.90756C8.05292 6.91477 8.14808 6.95078 8.21396 7.02281C8.28716 7.09484 8.32375 7.19568 8.32375 7.31092L8.29447 9.5006C8.87274 8.94598 11.7567 6 11.7567 6C11.7567 6 11.8885 6.07923 11.9251 6.11525C11.991 6.18007 12.0056 6.2593 11.9983 6.36014C11.9983 6.40336 11.9763 6.44658 11.9617 6.497C11.9324 6.56903 11.8885 6.66266 11.8299 6.77071C11.7128 6.97239 11.5371 7.2389 11.3102 7.55582C10.8564 8.19688 10.2489 8.96759 9.634 9.69508C9.15089 10.2641 8.45551 11.042 7.89921 11.5318C7.62837 11.7695 7.4161 11.9136 7.25507 11.9712C7.19651 11.9856 7.14527 12 7.09403 12Z" fill="white"/>
<defs>
<linearGradient id="paint0_linear" x1="9.05952" y1="0.825614" x2="9.05952" y2="16.0883" gradientUnits="userSpaceOnUse">
<stop stop-color="#3BDF58"/>
<stop offset="1" stop-color="#33B44A"/>
</linearGradient>
</defs>
</svg>
