<svg xmlns="http://www.w3.org/2000/svg" width="139" height="46" fill="none"><g fill="#fff" clip-path="url(#clip0)"><path d="M23.898 39.554l1.302 3.823 1.672-3.823h1.16l-.244 4.988h-.893l.08-1.644.196-2.2-1.713 3.844h-.642l-1.333-3.84-.019 2.196-.08 1.644h-.893l.244-4.988h1.163zM31.057 44.542a1.207 1.207 0 01-.082-.346c-.288.276-.63.414-1.028.414-.385 0-.694-.106-.927-.319a.957.957 0 01-.327-.788c.02-.395.186-.698.5-.91.314-.21.754-.316 1.32-.316h.527l.012-.244c.009-.192-.039-.345-.145-.46-.105-.116-.27-.174-.498-.174a.814.814 0 00-.49.142.458.458 0 00-.205.361h-.862a.943.943 0 01.238-.57 1.48 1.48 0 01.589-.416c.245-.1.515-.15.81-.15.45 0 .802.108 1.059.327.257.218.378.524.366.92l-.082 1.671c-.016.334.02.6.107.799l-.003.058h-.879zm-1.539.802a.423.423 0 01.141-.303.52.52 0 01.366-.122c.157 0 .274.041.356.122.081.08.119.182.113.303a.415.415 0 01-.143.301.528.528 0 01-.368.12c-.156 0-.274-.04-.353-.12a.377.377 0 01-.112-.301zm.621-1.402c.17 0 .332-.04.486-.12a.877.877 0 00.355-.322l.034-.699h-.465c-.319 0-.562.054-.727.161a.548.548 0 00-.264.456c-.008.16.04.287.146.382.106.095.25.142.435.142zM33.674 40.835l.003.428c.3-.33.68-.496 1.142-.496.799 0 1.184.442 1.155 1.325l-.12 2.45h-.861l.117-2.402c.012-.235-.032-.409-.132-.522-.1-.113-.27-.17-.508-.17a.883.883 0 00-.799.456l-.129 2.638h-.861l.181-3.707h.812zM36.672 42.661c.028-.575.19-1.035.487-1.379a1.436 1.436 0 011.14-.515c.437 0 .774.147 1.01.442l.057-.374h.776l-.175 3.593c-.024.487-.2.87-.526 1.152-.327.28-.756.42-1.288.42a2.04 2.04 0 01-.816-.169c-.263-.113-.46-.26-.59-.443l.433-.5c.25.303.569.455.956.455.286 0 .516-.075.689-.224.172-.15.265-.37.28-.66l.012-.25c-.26.267-.598.4-1.011.4-.45 0-.808-.172-1.076-.517-.269-.344-.387-.82-.358-1.43zm.855.072c-.019.372.046.665.192.878.147.213.36.32.639.32a.883.883 0 00.793-.43l.08-1.632c-.15-.281-.398-.421-.745-.421a.813.813 0 00-.678.325c-.166.218-.26.537-.281.96zM44.154 42.054l.79-1.22h.957L44.64 42.66l1.12 1.88h-.95l-.703-1.267-.824 1.268h-.957l1.303-1.88-1.08-1.827h.95l.656 1.22zM48.6 44.542a1.207 1.207 0 01-.083-.346 1.43 1.43 0 01-1.027.414c-.386 0-.695-.106-.927-.319a.957.957 0 01-.327-.788c.02-.395.186-.698.5-.91.314-.21.754-.316 1.319-.316h.528l.011-.244c.01-.191-.038-.345-.144-.46-.106-.116-.271-.174-.499-.174a.814.814 0 00-.489.142.459.459 0 00-.206.361h-.86a.944.944 0 01.237-.57 1.48 1.48 0 01.59-.416c.244-.1.514-.15.81-.15.45 0 .801.109 1.058.327.257.218.379.524.366.92l-.081 1.671c-.017.334.019.6.106.799l-.003.058h-.88zm.83-5.187a.95.95 0 01-.256.628.767.767 0 01-.578.25.865.865 0 01-.238-.03 1.44 1.44 0 01-.28-.131 1.377 1.377 0 00-.257-.123.628.628 0 00-.167-.021.319.319 0 00-.234.098.372.372 0 00-.106.255l-.527-.028a.977.977 0 01.256-.634.755.755 0 01.574-.257c.135 0 .294.052.48.154.185.103.34.154.462.154.09 0 .168-.032.236-.097a.372.372 0 00.108-.26l.527.042zm-1.748 4.588c.17 0 .332-.04.487-.12a.879.879 0 00.354-.323l.034-.699h-.465c-.319 0-.561.054-.727.161a.548.548 0 00-.264.456c-.007.16.041.287.147.382.105.096.25.143.434.143zM53.054 41.239a1.44 1.44 0 011.09-.473c.818 0 1.211.451 1.179 1.353l-.118 2.422h-.862l.116-2.391c.013-.256-.036-.437-.145-.544-.11-.106-.275-.16-.497-.16a.883.883 0 00-.795.446l-.13 2.648h-.861l.257-5.262h.861l-.095 1.96zM56.006 42.654c.017-.363.108-.69.271-.982a1.72 1.72 0 01.66-.671 1.88 1.88 0 01.94-.235c.519 0 .93.16 1.238.483.306.322.46.748.46 1.28l-.006.196a2.218 2.218 0 01-.266.98c-.16.287-.379.51-.657.668a1.89 1.89 0 01-.95.236c-.54 0-.965-.174-1.273-.522-.309-.348-.448-.813-.42-1.393l.003-.04zm3.103-2.427l-.001.038-.692.001-.505-.534-.554.534-.685-.001.003-.045 1.006-.944h.507l.921.951zm-2.245 2.499c-.019.38.048.68.2.896.153.215.374.323.666.323.291 0 .522-.11.695-.329.172-.22.269-.54.29-.963.018-.374-.051-.67-.207-.89a.765.765 0 00-.663-.33.843.843 0 00-.686.324c-.176.217-.274.54-.295.969zm.292 2.648a.426.426 0 01.141-.303.52.52 0 01.366-.121c.156 0 .275.04.357.121.08.081.118.182.112.303a.415.415 0 01-.143.302.528.528 0 01-.367.12c-.156 0-.275-.04-.354-.12a.38.38 0 01-.112-.302zM61.126 44.541h-.862l.181-3.706h.862l-.181 3.706zm-.687-4.668a.45.45 0 01.142-.319.506.506 0 01.366-.127c.155 0 .274.043.355.127a.41.41 0 01.112.319.445.445 0 01-.143.313.518.518 0 01-.367.125c-.156 0-.274-.042-.354-.125a.405.405 0 01-.111-.313zM66.071 43.534a.354.354 0 00-.173-.339c-.123-.078-.33-.146-.62-.206a3.197 3.197 0 01-.723-.225c-.42-.201-.621-.492-.603-.874.016-.32.168-.587.458-.801.29-.215.65-.322 1.08-.322.458 0 .823.11 1.094.329a.98.98 0 01.382.853h-.861a.481.481 0 00-.165-.4c-.118-.106-.278-.159-.482-.159a.81.81 0 00-.468.127.42.42 0 00-.196.34.318.318 0 00.152.297c.108.071.328.142.663.215.335.071.596.157.783.256.188.1.326.219.412.358.086.14.125.309.115.507-.016.334-.172.604-.468.81-.296.207-.676.31-1.14.31a1.99 1.99 0 01-.831-.164c-.24-.109-.425-.26-.553-.452a1.004 1.004 0 01-.176-.62h.837a.55.55 0 00.208.454c.137.106.322.16.556.16.227 0 .401-.042.524-.126a.408.408 0 00.195-.328zM69.911 44.542a1.206 1.206 0 01-.082-.346 1.43 1.43 0 01-1.028.415c-.385 0-.694-.107-.927-.32a.957.957 0 01-.327-.787c.02-.396.186-.698.5-.91.314-.212.754-.317 1.32-.317h.527l.012-.244c.009-.191-.039-.345-.145-.46-.105-.116-.272-.174-.498-.174a.814.814 0 00-.49.142.459.459 0 00-.205.362h-.862a.943.943 0 01.237-.57c.148-.178.345-.316.59-.417.245-.1.515-.15.81-.15.45 0 .802.109 1.059.327.257.218.378.524.366.92l-.082 1.672c-.016.333.02.599.107.798l-.003.058h-.879v.001zm-.918-.6c.17 0 .332-.04.486-.12a.877.877 0 00.355-.322l.034-.698h-.465c-.319 0-.562.054-.727.16a.548.548 0 00-.264.456c-.008.16.04.287.146.382.106.096.25.143.435.143zm.097-3.716v-.5c.173-.011.298-.033.377-.065.079-.032.12-.087.123-.168.008-.164-.165-.246-.519-.246l.045-.422c.4 0 .698.06.894.178.197.12.29.28.28.48a.476.476 0 01-.155.34.716.716 0 01-.401.167l-.012.237h-.632zM72.528 40.835l.003.428c.3-.33.68-.496 1.142-.496.799 0 1.183.442 1.155 1.325l-.12 2.45h-.861l.117-2.402c.012-.235-.032-.409-.132-.522-.1-.113-.27-.17-.508-.17a.883.883 0 00-.799.456l-.129 2.638h-.861l.181-3.707h.812zM80.84 42.726c-.027.573-.184 1.03-.47 1.372a1.38 1.38 0 01-1.11.512c-.42 0-.751-.133-.991-.4l-.086 1.757h-.861l.25-5.132h.794l.017.377c.267-.297.619-.445 1.053-.445.468 0 .827.168 1.076.505.25.337.36.804.331 1.403l-.002.05zm-.853-.072c.017-.37-.044-.663-.186-.88-.142-.218-.354-.326-.638-.326-.352 0-.612.14-.78.422l-.08 1.644c.142.287.39.431.745.431a.79.79 0 00.66-.32c.164-.214.257-.537.279-.97zM82.492 41.239a1.44 1.44 0 011.09-.473c.818 0 1.21.451 1.178 1.353l-.118 2.422h-.861l.116-2.391c.012-.256-.036-.437-.146-.544-.109-.106-.275-.16-.497-.16a.883.883 0 00-.794.446l-.13 2.648h-.861l.256-5.262h.862l-.096 1.96zM87.804 44.541a1.205 1.205 0 01-.082-.346 1.43 1.43 0 01-1.028.415c-.385 0-.694-.106-.927-.319a.957.957 0 01-.327-.788c.02-.395.186-.698.5-.91.314-.211.754-.317 1.32-.317h.527l.012-.243c.009-.192-.039-.345-.144-.46-.106-.117-.273-.174-.5-.174a.814.814 0 00-.488.142.459.459 0 00-.206.36h-.862a.944.944 0 01.237-.57 1.48 1.48 0 01.59-.415c.245-.1.515-.151.81-.151.45 0 .802.11 1.059.327.257.218.378.525.366.92l-.082 1.672c-.016.333.02.6.107.798l-.003.059h-.879zm.793-4.184l-.684.002-.608-.555-.658.555-.684-.002 1.027-.854h.663l.944.854zm-1.71 3.585c.17 0 .332-.04.486-.12a.88.88 0 00.355-.322l.034-.7h-.465c-.32 0-.562.055-.728.162a.547.547 0 00-.263.455c-.008.16.04.288.146.382.106.096.25.143.435.143zM88.29 39.9l-.004-.429c.15-.011.258-.03.325-.058.068-.028.103-.074.106-.14.007-.142-.141-.213-.447-.213l.043-.36c.323 0 .565.05.727.152.16.102.236.239.228.41a.394.394 0 01-.144.3.635.635 0 01-.335.135l-.013.202h-.486zM90.431 40.835l.006.387c.285-.304.66-.455 1.129-.455.512 0 .854.19 1.025.568.297-.379.699-.568 1.204-.568.423 0 .732.113.928.339.196.225.285.559.268 1l-.118 2.435h-.862l.118-2.411c.011-.236-.033-.408-.134-.518-.101-.109-.275-.164-.52-.164-.197 0-.36.051-.488.153a.856.856 0 00-.28.4l-.12 2.54h-.862l.119-2.438c.01-.437-.21-.655-.66-.655-.345 0-.596.136-.754.408l-.13 2.686h-.862l.18-3.707h.813zM97.495 43.196c.012-.231.087-.442.226-.636.14-.193.407-.422.803-.687a2.91 2.91 0 01-.39-.623 1.147 1.147 0 01-.095-.497c.02-.39.158-.7.414-.927.257-.227.594-.34 1.01-.34.376 0 .678.106.908.32a.97.97 0 01.321.793c-.01.208-.074.399-.191.574-.117.174-.304.349-.561.522l-.363.246.941 1.138c.157-.275.244-.579.261-.915h.749c-.031.614-.204 1.118-.521 1.51l.717.868h-1l-.274-.332c-.381.267-.828.4-1.338.4-.51 0-.913-.13-1.206-.392-.294-.261-.43-.602-.41-1.022zm1.673.75c.29 0 .567-.094.829-.281l-1.065-1.284-.113.075c-.294.208-.447.445-.46.713a.699.699 0 00.202.561c.147.144.35.216.607.216zm-.319-3.213c-.009.192.101.433.33.722l.406-.26.115-.086a.642.642 0 00.243-.483.414.414 0 00-.136-.333.528.528 0 00-.38-.139.538.538 0 00-.409.164.626.626 0 00-.169.415zM105.32 39.934l-.044.901h.677l-.03.616h-.677l-.101 2.07c-.007.141.017.244.072.306.054.064.156.094.306.094.099 0 .2-.011.303-.034l-.032.645a2.24 2.24 0 01-.571.078c-.662 0-.976-.353-.941-1.059l.102-2.1h-.631l.03-.616h.631l.044-.9h.862zM107.346 44.541h-.862l.181-3.706h.862l-.181 3.706zm-.687-4.668a.453.453 0 01.142-.319.506.506 0 01.366-.127c.157 0 .275.043.355.127a.409.409 0 01.112.319.446.446 0 01-.142.313.52.52 0 01-.368.125c-.156 0-.274-.042-.354-.125a.406.406 0 01-.111-.313zM109.97 44.61c-.545 0-.98-.166-1.303-.498-.323-.333-.471-.776-.444-1.328l.005-.102c.018-.37.108-.7.27-.992a1.755 1.755 0 011.561-.924c.522 0 .918.161 1.187.483.269.322.39.778.361 1.367l-.016.336h-2.506c.011.306.105.548.282.727a.925.925 0 00.687.267c.395 0 .724-.154.987-.462l.444.428a1.644 1.644 0 01-.641.516 2.062 2.062 0 01-.874.182zm1.274-4.383l-.001.038-.692.001-.505-.534-.554.534-.685-.001.003-.045 1.007-.944h.507l.92.951zm-1.222 1.207a.774.774 0 00-.584.24c-.154.16-.257.382-.311.668h1.642l.003-.062c-.006-.279-.072-.489-.2-.632-.128-.142-.311-.214-.55-.214zM114.522 44.178c-.267.288-.634.431-1.099.431-.416 0-.725-.118-.928-.352-.203-.235-.293-.576-.271-1.021l.117-2.402h.862l-.117 2.392c-.023.47.167.705.572.705.419 0 .708-.145.869-.435l.13-2.662h.862l-.182 3.707h-.812l-.003-.363zM117.954 42.66c.028-.57.187-1.029.478-1.374a1.41 1.41 0 011.129-.52c.406 0 .728.137.965.412l.093-1.898h.862l-.257 5.262h-.78l-.024-.384c-.272.302-.623.453-1.053.453-.45 0-.804-.175-1.065-.524-.262-.35-.377-.825-.348-1.426zm.858.072c-.019.377.042.671.182.883.139.21.347.316.624.316a.865.865 0 00.795-.455l.077-1.583c-.144-.296-.391-.445-.743-.445-.279 0-.5.107-.662.32-.161.214-.253.535-.273.964zM124.464 44.178c-.267.288-.634.431-1.099.431-.416 0-.725-.117-.928-.352-.203-.235-.293-.576-.271-1.021l.117-2.402h.861l-.116 2.392c-.023.47.167.705.572.705.418 0 .707-.144.869-.435l.13-2.662h.861l-.181 3.707h-.812l-.003-.363zm-.11-3.863l-.715.002-.907-1.038h.982l.64 1.036zM127.136 40.835l.004.428c.3-.33.681-.496 1.142-.496.799 0 1.183.442 1.155 1.325l-.12 2.45h-.861l.117-2.402c.012-.235-.032-.409-.133-.522-.099-.113-.269-.17-.507-.17a.883.883 0 00-.799.456l-.129 2.638h-.861l.181-3.707h.811zM130.136 42.661c.029-.575.191-1.035.488-1.379a1.437 1.437 0 011.14-.515c.437 0 .774.147 1.01.442l.057-.374h.776l-.175 3.593c-.024.487-.199.87-.527 1.152-.327.28-.756.42-1.288.42-.281 0-.553-.055-.816-.169-.263-.113-.459-.26-.589-.443l.432-.5c.25.303.569.455.956.455.286 0 .516-.075.689-.224.172-.15.266-.37.28-.66l.013-.25c-.262.267-.599.4-1.012.4-.45 0-.808-.172-1.076-.517-.269-.344-.388-.82-.358-1.43zm.854.072c-.018.372.046.665.193.878.146.213.36.32.639.32a.88.88 0 00.793-.43l.08-1.632c-.15-.281-.398-.421-.745-.421a.814.814 0 00-.678.325c-.167.218-.261.537-.282.96z"/><path fill-rule="evenodd" d="M132.419 11.236a3.789 3.789 0 110 7.577 3.789 3.789 0 010-7.577zm0 .662a3.126 3.126 0 110 6.252 3.126 3.126 0 010-6.252zm-.608 2.858h.52c.337 0 .546-.015.631-.043a.377.377 0 00.197-.148.46.46 0 00.071-.262.42.42 0 00-.094-.284.427.427 0 00-.265-.135 5.594 5.594 0 00-.512-.013h-.548v.885zm-.705 2.007v-3.48h1.479c.373 0 .643.032.811.094a.797.797 0 01.405.333c.101.16.152.342.152.549a.931.931 0 01-.229.647c-.153.17-.382.276-.686.321.151.089.276.186.374.292.099.107.232.295.399.565l.424.679h-.84l-.504-.76c-.18-.27-.304-.44-.372-.51a.532.532 0 00-.211-.144 1.179 1.179 0 00-.355-.039h-.143v1.453h-.704zM131.397 28.492c-3.036 1.052-4.322-1.159-5.475-3.477l-3.169-6.372a122.807 122.807 0 01-3.921 3.244c.956 1.578 2.887 5.638 3.487 6.752 1.756 3.258 3.558 6.482 8.725 4.75 2.136-.717 2.391-5.604.353-4.897zm-15.252-1.224l.37-3.624c-3.28 2.37-5.529 3.403-5.964 2.275l-.674 6.607c-.2 1.958 5.531 1.96 5.732 0l.536-5.258zm-27.927-4.916c-.841 7.852 3.635 11.607 10.71 11.607 3.121 0 5.627-1.073 7.21-2.194 1.432-1.073 1.939-5.804.063-4.682-1.519.975-3.759 1.853-6.004 1.853-3.707 0-6.819-1.463-6.27-6.584.553-5.17 3.983-6.681 7.691-6.681 2.244 0 4.291.926 5.602 1.902 1.582 1.17 2.142-3.609.945-4.73-1.338-1.171-3.619-2.196-6.741-2.196-7.075.001-12.35 3.708-13.206 11.705zm-2.098-1.706c.689-6.438-2.496-9.949-9.618-9.949-7.416 0-11.75 4.487-12.497 11.461-.887 8.29 4.742 11.753 10.743 11.753a15.25 15.25 0 007.79-2.146c1.461-.877 1.889-4.876 0-4.096-2.607 1.122-4.822 1.756-6.87 1.756-3.416 0-6.409-1.658-6.136-5.12 1.296.195 2.749.293 4.067.293 6.146-.002 12.275-1.66 12.521-3.952zm-16.052-.44c.451-3.754 3.09-5.169 6.213-5.169 3.415 0 5.047 1.61 4.791 4-.078.73-3.317 1.365-7.366 1.365-1.17 0-2.385-.049-3.638-.195zm-8.28 8.584c-.46.195-.855.244-1.197.244-.976 0-1.293-.682-1.147-2.048l.205-1.902.663-6.194c.548-5.12-2.147-8.193-7.026-8.193-3.22 0-6.262 1.074-8.795 3.317l1.38-12.883c.244-2.292-5.768.098-6.014 2.398l-3.102 28.968c-.208 1.95 5.549 1.95 5.757 0l1.446-13.509c2.305-2.39 4.546-3.267 6.448-3.267 2.927 0 4.32 1.56 3.934 5.17l-.334 3.12-.408 3.804c-.506 4.731 1.322 6.34 3.859 6.34 1.219 0 2.475-.342 3.845-.83 2.192-.878 2.59-5.51.486-4.535zM10.685 18.294C9.567 28.83 15.895 33.94 24.115 33.94c3.82 0 7.214-1.187 8.742-2.174 1.536-.994 1.959-5.646.105-4.64-1.532.83-4.788 1.836-7.593 1.836-4.738 0-8.453-3.273-7.668-10.668.796-7.493 5.19-10.634 9.929-10.634 2.804 0 5.833 1.025 7.198 1.885 1.627 1.025 2.2-3.597.88-4.64-1.312-1.037-4.455-2.224-8.275-2.224-8.22 0-15.62 4.979-16.748 15.613zM5.38 7.232c1.95 0 3.464-1.366 3.698-3.56C9.297 1.624 8.083.21 6.131.21c-2.049 0-3.517 1.414-3.737 3.462-.234 2.194.936 3.56 2.986 3.56zm1.654 21.37c-.152.05-.303.099-.45.099-.487 0-.689-.39-.621-1.024l1.725-16.114c.246-2.292-5.767.098-6.017 2.439L.055 29.09c-.365 3.405 1.143 4.82 3.338 4.82.975 0 2.075-.245 3.152-.732 2.158-1.024 2.632-5.454.49-4.576z" clip-rule="evenodd"/><path d="M138.469 0c-10.898 8.725-19.409 15.106-21.052 16.142l1.267-12.73c.229-2.302-5.75.15-5.981 2.448l-1.752 17.47C110.33 29.535 139.823 1.41 138.469 0z"/></g><defs><clipPath id="clip0"><path fill="#fff" d="M0 0h138.514v46H0z"/></clipPath></defs></svg>