<svg width="28" height="28" viewBox="0 0 28 28" fill="none" xmlns="http://www.w3.org/2000/svg">
<path d="M27.6579 26.0083L19.6955 18.0458C21.2378 16.1407 22.1664 13.7199 22.1664 11.0832C22.1664 4.9723 17.1941 0 11.0832 0C4.97225 0 0 4.97225 0 11.0832C0 17.1941 4.9723 22.1664 11.0832 22.1664C13.7199 22.1664 16.1407 21.2378 18.0458 19.6955L26.0082 27.6579C26.2357 27.8854 26.5344 27.9997 26.8331 27.9997C27.1318 27.9997 27.4304 27.8854 27.6579 27.6579C28.1141 27.2017 28.1141 26.4644 27.6579 26.0083ZM11.0832 19.8331C6.25794 19.8331 2.33333 15.9085 2.33333 11.0832C2.33333 6.25789 6.25794 2.33328 11.0832 2.33328C15.9085 2.33328 19.8332 6.25789 19.8332 11.0832C19.8332 15.9085 15.9085 19.8331 11.0832 19.8331Z" fill="white"/>
</svg>
